<svg xmlns="http://www.w3.org/2000/svg" id="Layer_1" viewBox="0 0 480 120"><metadata></metadata><defs><style>.cls-1{fill:#087cb7;}.cls-1,.cls-2,.cls-3,.cls-4,.cls-5,.cls-6,.cls-7,.cls-8{stroke-width:0px;}.cls-2{fill:#5f5849;}.cls-3{fill:#494443;}.cls-4{fill:#d86d12;}.cls-5{fill:#275d2a;}.cls-6{fill:#57822f;}.cls-7{fill:#c24b18;}.cls-8{fill:#fab900;}</style></defs><path class="cls-1" d="m40.28,10.23c.96.75,1.94,1.49,2.93,2.23,9.09,5.94,20.55,9.53,33.25,11.66l4.24-5.32c-17.82-1.5-33.96-5.08-45.75-12.77.9.73,1.81,1.46,2.72,2.19.85.67,1.72,1.35,2.6,2.02Z"></path><path class="cls-1" d="m97.44,26.39c18.76,1.13,38.76.37,57.13-.03.19,0,.37,0,.56-.01,41.14-1.01,92.34-5.45,119.87,12.5-.9-.73-1.81-1.46-2.72-2.19-.85-.67-1.72-1.35-2.6-2.02-.96-.75-1.94-1.49-2.93-2.23-26.31-17.18-72.47-14.77-111.36-13.9-.19,0-.37,0-.56.01-18.89.47-39.9,1.65-59.77,1.06.16.46.32.92.48,1.39.63,1.81,1.27,3.62,1.9,5.42Z"></path><path class="cls-1" d="m59.56,95.46c-.21-.58-.41-1.14-.61-1.71-21.03-1.33-40.21-4.9-53.95-13.22.97.73,1.95,1.47,2.95,2.19.92.67,1.86,1.36,2.81,2.03,1.04.75,2.1,1.49,3.17,2.23,12.48,7.56,29.06,11.37,47.29,13.2-.07-.19-.13-.39-.2-.58-.5-1.38-.95-2.76-1.45-4.14Z"></path><path class="cls-1" d="m258.47,109.76c-1.04-.75-2.1-1.49-3.17-2.23-28.45-17.25-78.27-14.96-120.26-14.19-.2,0-.4,0-.6.01-15.98.33-33.36,1.09-50.45,1.1l-5.51,6.91c18.48.75,37.8.15,55.7-.18.2,0,.4,0,.6-.01,44.41-.91,99.67-5.21,129.44,12.82-.97-.73-1.95-1.47-2.95-2.19-.92-.67-1.86-1.36-2.81-2.03Z"></path><path class="cls-1" d="m115.62,85.95c-2.86-8.25-5.76-16.49-8.61-24.74l19.62-24.61c-7.09-.02-27.08-.05-28.28-.07-1.2-3.39-2.4-6.82-3.6-10.25-.83-2.41-1.7-4.81-2.53-7.22-.83-2.41-1.7-4.81-2.53-7.22l-19.62,24.61c-9.44-.02-18.88-.05-28.28-.07,2.86,8.25,5.76,16.49,8.62,24.74l-19.62,24.61c2.76.01,24.37.08,28.28.07.5,1.38,6.71,19.21,8.66,24.69l2.47-3.09,2.47-3.09,14.69-18.43c9.44.02,18.84.05,28.28.07Zm-40.89,3.59l-1.62,2.03-1.62,2.03c-1.28-3.6-2.53-7.21-3.78-10.81-.33-.91-.63-1.82-.96-2.72s-.62-1.79-.95-2.69c-2.57,0-5.15-.02-7.72-.02-1.79-.01-3.61-.02-5.42,0-1.82,0-3.64-.02-5.45-.03l12.9-16.18c-1.88-5.42-3.79-10.84-5.67-16.27,6.18.02,12.39.03,18.6.05l12.9-16.18c.54,1.58,1.12,3.16,1.66,4.75.54,1.58,1.12,3.16,1.66,4.75.79,2.26,1.58,4.51,2.37,6.74.79.02,1.54,0,2.33.02.76-.01,1.54,0,2.33,0,4.63.01,9.27.03,13.93.04l-2.17,2.69-2.13,2.72-8.6,10.78c1.88,5.42,3.79,10.84,5.66,16.27-6.21-.02-12.39-.03-18.6-.05l-9.66,12.12Z"></path><polygon class="cls-1" points="138.57 58.01 138.57 36.54 132.43 36.54 132.43 40.4 133.66 40.4 133.66 58.01 138.57 58.01"></polygon><path class="cls-1" d="m141.39,51.74c2.17.8,4.39,1.2,6.65,1.2,1.63,0,3.05-.28,4.27-.85,1.22-.57,2.17-1.41,2.84-2.52.67-1.11,1.01-2.47,1.01-4.07v-8.95h-5v9.21c0,1.38-.51,2.36-1.52,2.93-.15-.29-.27-.66-.36-1.12l-2.24-11.02h-5.03l2.38,10.47c.08.36.23.72.45,1.08.22.36.48.67.78.94-1-.18-2.08-.48-3.22-.92l-1,3.63Z"></path><path class="cls-1" d="m174.95,43.7c-.02-2.5-.69-4.39-2.01-5.68-1.32-1.29-3.26-1.93-5.82-1.93-1.29,0-2.65.12-4.07.36-1.42.24-2.64.55-3.66.94l1.04,3.58c.26-.11.61-.24,1.03-.36.42-.13.79-.22,1.11-.27v.08s-.07.05-.15.13c-.33.38-.63.89-.88,1.54-.25.65-.42,1.33-.5,2.03l-.92,8.41h4.94l.82-9.1c.11-1.12.33-1.94.68-2.48.35-.54.86-.81,1.54-.81.56,0,1.01.26,1.33.77.33.51.49,1.22.49,2.11v5.65s-2.18,0-2.18,0v3.85h7.19v-8.82Z"></path><polygon class="cls-1" points="190.83 36.54 182.33 36.54 182.33 32.24 177.33 32.24 177.33 40.4 185.5 40.4 180.55 52.52 185.81 52.52 190.83 39.75 190.83 36.54"></polygon><path class="cls-1" d="m200.51,36.54v9.19c0,1.41.3,2.65.9,3.72.6,1.07,1.45,1.91,2.55,2.5,1.1.59,2.36.89,3.8.89s2.7-.3,3.79-.89c1.09-.59,1.94-1.43,2.54-2.5.6-1.07.9-2.31.9-3.72v-3.99c0-1.13-.19-2.09-.57-2.9-.38-.81-.93-1.43-1.64-1.85-.72-.43-1.57-.64-2.57-.64-.54,0-1.12.08-1.76.25-.63.17-1.2.39-1.69.66l.4,3.17c.35-.04.76-.05,1.21-.05.56,0,.97.14,1.23.42.26.28.38.73.38,1.35v4.22c0,.81-.21,1.46-.62,1.95-.41.49-.96.74-1.62.74-.44,0-.83-.11-1.17-.34-.34-.22-.6-.54-.79-.95-.18-.41-.28-.88-.28-1.41v-9.82h-5Z"></path><path class="cls-1" d="m223.13,43.66h-3.96c-.13.09-.28.26-.45.52-.17.26-.31.64-.44,1.13-.12.49-.18,1.1-.18,1.81v10.89h4.81v-11.47c0-1.2.07-2.16.22-2.88Z"></path><path class="cls-1" d="m232.06,45.24v-8.7h-13.99v3.85h8.99v4.95c0,1.12-.25,1.95-.75,2.5-.5.55-1.24.85-2.24.9v3.76c2.57-.1,4.54-.76,5.92-1.99,1.38-1.23,2.07-2.99,2.07-5.28Z"></path><polygon class="cls-1" points="248.34 39.75 248.34 36.54 239.83 36.54 239.83 32.24 234.83 32.24 234.83 40.4 243 40.4 238.05 52.52 243.32 52.52 248.34 39.75"></polygon><polygon class="cls-1" points="131.96 86.11 139.64 66.55 139.64 61.64 126.62 61.64 126.62 55.05 118.96 55.05 118.96 67.55 131.48 67.55 123.89 86.11 131.96 86.11"></polygon><path class="cls-1" d="m159.62,61.64l-3.28,7.46-5.06-7.46h-8.53l5.44,8.01c-1.56.76-2.69,1.82-3.37,3.18-.68,1.37-1.02,3.22-1.02,5.55v7.72h7.38v-11.14c0-.31.03-.57.08-.77l8.09,11.91h8.51l-6.85-10.11,7.16-14.36h-8.55Z"></path><path class="cls-1" d="m187.67,86.11v-15.37c0-1.89-.4-3.52-1.21-4.88-.81-1.37-1.98-2.41-3.51-3.13-1.53-.72-3.35-1.08-5.47-1.08h-7.58v5.9h6.96c2.1,0,3.15.95,3.15,2.85v15.71h7.66Z"></path><path class="cls-1" d="m193.29,83.56c2.29,1.11,4.72,1.94,7.29,2.52,2.57.57,5.05.86,7.45.86,3.07,0,5.85-.47,8.32-1.41,2.47-.94,4.44-2.35,5.88-4.23,1.45-1.88,2.17-4.18,2.17-6.89v-12.78h-7.4v11.89c0,2.53-.82,4.42-2.47,5.64-1.64,1.23-3.92,1.84-6.81,1.84-1.05,0-2.22-.14-3.51-.43-1.29-.29-2.47-.66-3.55-1.12v-17.81h-7.38v21.92Z"></path><path class="cls-1" d="m205.02,72.6c0,1.02-.04,2.03-.13,3-.09.98-.2,1.72-.33,2.21l6.19-.04c.49-.63.89-1.59,1.2-2.88.32-1.29.48-2.61.48-3.97v-9.28h-7.4v10.96Z"></path><polygon class="cls-1" points="239.68 75.76 239.68 61.64 228.52 61.64 228.52 67.55 232.04 67.55 232.04 75.76 239.68 75.76"></polygon><path class="cls-3" d="m303.71,107.06h-1.49v-1.48h3.38v4.98h-1.89v-3.5Z"></path><path class="cls-3" d="m308.58,109.14c.05-.4.16-.78.32-1.14.17-.36.36-.64.58-.84.03-.03.08-.07.13-.1v-.03c-.22.03-.47.09-.77.17-.3.08-.57.16-.79.25l-.42-1.38c.57-.21,1.23-.37,1.98-.5s1.44-.19,2.08-.19c1.27,0,2.24.33,2.91.99.67.66,1,1.63,1.01,2.91v5.12h-3.76v-1.48h1.87v-3.88c0-.68-.15-1.21-.44-1.57-.29-.36-.71-.55-1.25-.55-.45,0-.81.17-1.08.52-.28.35-.45.83-.52,1.46l-.59,5.5h-1.86l.62-5.27Z"></path><path class="cls-3" d="m318.2,107.06h-.89v-1.48h2.78v8.83h-1.89v-7.35Z"></path><path class="cls-3" d="m328,110.62l2.68,3.79h-2.1l-3.59-5.08c-.17.14-.29.32-.38.53-.08.21-.12.45-.12.74v3.82h-1.82v-3.05c0-.79.13-1.43.38-1.92.25-.49.66-.87,1.21-1.13l-1.93-2.73h2.11l2.41,3.41,1.79-3.41h2.12l-2.75,5.04Z"></path><path class="cls-3" d="m338.9,106.78l-3.07,7.63h-2l3.04-7.35h-4.95v-4.05h1.89v2.58h5.09v1.2Z"></path><path class="cls-3" d="m340.5,111.39c0-.49.04-.87.13-1.14.09-.27.2-.52.34-.74h1.51c-.11.44-.16,1.01-.16,1.72v3.19h-1.82v-3.02Zm5.22-2.61c0-.59-.14-1.03-.43-1.31-.29-.28-.74-.42-1.34-.42h-3.43v-1.48h3.56c1.14,0,2.01.28,2.62.84.61.56.91,1.37.91,2.43v5.55h-1.88v-5.63Z"></path><path class="cls-3" d="m353.94,107.06h-.91v-1.48h2.77v11.92h-1.86v-10.44Z"></path><path class="cls-3" d="m358.61,107.06h-.89v-1.48h2.78v8.83h-1.89v-7.35Z"></path><path class="cls-3" d="m362.87,107.13l-.56-.12v-1.43h4.62v1.48h-2.21l1.17,7.35h-1.94l-1.08-7.28Z"></path><path class="cls-3" d="m369.26,109.14c.05-.4.16-.78.32-1.14.17-.36.36-.64.58-.84.03-.03.08-.07.13-.1v-.03c-.22.03-.47.09-.77.17-.3.08-.57.16-.79.25l-.42-1.38c.57-.21,1.23-.37,1.98-.5s1.44-.19,2.08-.19c1.27,0,2.24.33,2.91.99.67.66,1,1.63,1.01,2.91v5.12h-3.76v-1.48h1.87v-3.88c0-.68-.15-1.21-.44-1.57-.29-.36-.71-.55-1.25-.55-.45,0-.81.17-1.08.52-.28.35-.45.83-.52,1.46l-.59,5.5h-1.86l.62-5.27Z"></path><path class="cls-3" d="m378.4,111.39c0-.49.04-.87.13-1.14.09-.27.2-.52.34-.74h1.51c-.11.44-.16,1.01-.16,1.72v3.19h-1.82v-3.02Zm5.22-2.61c0-.59-.14-1.03-.43-1.31-.29-.28-.74-.42-1.34-.42h-3.43v-1.48h3.56c1.14,0,2.01.28,2.62.84.61.56.91,1.37.91,2.43v5.55h-1.88v-5.63Z"></path><path class="cls-3" d="m398.09,106.42c.59.56.88,1.4.88,2.52v5.47h-1.88v-5.61c0-.6-.14-1.05-.39-1.33-.26-.28-.66-.42-1.22-.42h-1.2c-.11.27-.21.59-.27.97s-.1.74-.1,1.09v2.74c0,.86-.22,1.51-.65,1.97s-1.04.69-1.83.69c-.3,0-.64-.03-1-.08v-1.48c.17.01.34.02.5.02.39,0,.68-.1.87-.3.19-.2.28-.52.28-.95v-2.44c0-.39.05-.79.16-1.2.1-.41.25-.75.43-1.02h-1.51v-1.48h4.31c1.16,0,2.04.28,2.62.84Z"></path><path class="cls-3" d="m407.54,106.78l-3.07,7.63h-2l3.04-7.35h-4.95v-4.05h1.89v2.58h5.09v1.2Z"></path><path class="cls-3" d="m413.66,110.43l2.14,3.1v.88h-6.77v-1.49h4.35l-4.99-7.34h2.11l2.06,3.21,1.63-3.21h2.12l-2.64,4.85Z"></path><path class="cls-3" d="m417.8,111.39c0-.49.04-.87.13-1.14.09-.27.2-.52.34-.74h1.51c-.11.44-.16,1.01-.16,1.72v3.19h-1.82v-3.02Zm5.22-2.61c0-.59-.14-1.03-.43-1.31-.29-.28-.74-.42-1.34-.42h-3.43v-1.48h3.56c1.14,0,2.01.28,2.62.84.61.56.91,1.37.91,2.43v5.55h-1.88v-5.63Z"></path><path class="cls-3" d="m431.24,107.06h-.91v-1.48h2.77v11.92h-1.86v-10.44Z"></path><path class="cls-3" d="m435.92,107.06h-.89v-1.48h2.78v8.83h-1.89v-7.35Z"></path><path class="cls-3" d="m439.2,114.46v-1.71c.17.03.36.04.58.04.62-.02,1.14-.18,1.54-.51.4-.32.69-.77.85-1.33v-3.9h-1.97v-1.48h3.82v4.51c0,.47.05.93.14,1.39l.61,2.93h-1.75l-.52-2.34h-.04c-.07.44-.23.85-.49,1.21-.26.37-.59.66-.99.88-.4.22-.83.33-1.3.33-.19,0-.34-.01-.47-.04Z"></path><path class="cls-3" d="m449.98,108.43c0-.43-.12-.77-.37-1.01-.25-.24-.6-.36-1.05-.36h-2.81v-1.48h2.91c.66,0,1.24.12,1.72.35.48.23.85.57,1.1,1.02.25.44.38.97.38,1.59v5.87h-1.89v-5.98Z"></path><path class="cls-3" d="m459.56,110.62l2.68,3.79h-2.1l-3.59-5.08c-.17.14-.29.32-.38.53-.08.21-.12.45-.12.74v3.82h-1.82v-3.05c0-.79.13-1.43.38-1.92.25-.49.66-.87,1.21-1.13l-1.93-2.73h2.11l2.41,3.41,1.79-3.41h2.12l-2.75,5.04Z"></path><path class="cls-3" d="m378.67,83.22v-8.69c0-.73-.04-.93-.65-.93h-.57c-.65,0-.57.32-.57.97v8.65c0,.73-.08,1.02.57,1.02h.61c.49,0,.61-.28.61-1.02m-5.44-8.89c.12-.53-.16-.73-.85-.73h-.12c-.61,0-.85.08-.97.69l-2.52,12.67c-.73,3.74-2.35,4.71-5.52,4.71h-2.11c-2.97,0-3.94-1.1-4.55-4.06l-.16-.81c1.58-.28,3.29-.61,4.59-1.87,1.02-.97,1.66-2.44,1.91-4.18l.85-5.97c.04-.16.08-.41.08-.57,0-.53-.12-.61-.65-.61h-.53c-.69,0-.69.32-.77,1.05l-.73,5.64c-.24,2.03-.73,3.21-1.5,3.98-.93.89-2.72,1.3-3.45,1.3l-1.99-11.41c-.08-.57-.37-.57-.89-.57h-.12c-.65,0-.94.2-.81.81l2.11,12.26c.89,5.11,2.92,6.5,6.82,6.5h1.91c4.26,0,6.62-1.79,7.59-6.7l2.39-12.14Zm-24.48,17.54v-12.71c0-3.78-2.4-5.76-7.47-5.76-2.6,0-4.43.2-5.81.61-.69.24-.61.37-.61.73v.16c0,.37.12.57.73.41,1.22-.33,3.09-.49,5.03-.49,4.26,0,6.33.93,6.33,3.9v13.16c0,.73-.04,1.1.61,1.1h.57c.65,0,.61-.36.61-1.1m-15.27.37c-1.42-1.95-4.38-5.52-5.77-7.23l1.18-1.34c1.26-1.42,2.23-3.65,2.72-5.68l.81-3.37c.2-.81.08-1.01-.69-1.01h-.41c-.57,0-.69.37-.85.97l-.98,4.18c-.69,2.88-1.5,4.34-2.39,5.36l-.12-.08-8.49-9.91c-.32-.41-.45-.53-.97-.53h-.69c-.57,0-.49.53-.24.85l4.87,5.81-1.1,1.09c-1.26,1.26-2.48,4.39-2.88,6.05l-1.14,4.59c-.16.69-.16.97.49.97h.41c.65,0,.73-.36.89-.97l1.01-4.14c.69-2.88,1.46-5.44,3-6.78,2.76,3.09,7.03,8.36,9.34,11.33.28.32.32.57.85.57h.77c.49,0,.57-.45.37-.73m-19.12-17.74c0-.93-.28-.89-.69-.89h-12.3v-5.24c0-.69-.08-.93-.61-.93h-.45c-.65,0-.73.16-.73.77v6.13c0,.73.16.73.81.73h12.18l-6.98,16.89c-.16.36-.33,1.01.41,1.01h.32c.69,0,.85-.41,1.1-1.01l6.78-16.77c.12-.24.16-.41.16-.69"></path><path class="cls-3" d="m462.35,74.88c0-.93-.28-.89-.69-.89h-12.3v-5.24c0-.69-.08-.93-.61-.93h-.45c-.65,0-.73.16-.73.77v6.13c0,.73.16.73.81.73h12.18l-6.98,16.89c-.16.37-.32,1.01.41,1.01h.32c.69,0,.85-.41,1.1-1.01l6.78-16.77c.12-.24.16-.41.16-.69m-18.11,8c2.44-4.91.2-8.89-4.87-8.89h-9.83c-.65,0-.98,0-.98.57v.28c0,.53.33.61.98.61h9.95c3.66,0,5.03,2.97,3.49,6.09l-5.36,10.88c-.37.73-.2.93.28.93h.57c.57,0,.77-.45,1.06-1.01l4.71-9.46Zm-12.71,17.5v-18.07c0-.28-.08-.57-.41-.57h-.37c-.36,0-.41.2-.57.65-.32.81-.36,1.54-.36,2.6v15.39c0,.73-.08,1.1.57,1.1h.53c.65,0,.61-.37.61-1.1m-6.13-13.68v-6.94c0-4.14-2.36-5.85-5.68-5.85-.85,0-2.24.16-2.84.45-.32.16-.57.28-.57.69v.45c0,.49.2.61.73.36.61-.28,1.91-.53,2.64-.53,2.4,0,3.98,1.3,3.98,4.34v7.23c0,3.98-1.46,5.28-6.17,5.28-1.14,0-3.57-.08-5.48-.45v-16.73c0-.69.04-1.01-.73-1.01h-.4c-.65,0-.65.32-.65.97v16.93c0,.61.12,1.01.81,1.14,1.79.32,4.26.57,6.46.57,5.32,0,7.92-1.66,7.92-6.9"></path><path class="cls-2" d="m409.21,25.89c-5.75,5.18-12.03,19.11-14.86,25.24-5.73-18.19-17.39-30.52-17.39-30.52,0,0-.44,0-1.74,1.7,2.76,2.4,12.56,17.29,15.5,28.15,3.03,11.19-.16,43.74-.16,43.74h6.5c-.5-5.73-.73-28.16.26-39.03,1.18-12.94,13.44-27.89,13.44-27.89,0,0-.04-.36-1.55-1.4"></path><path class="cls-8" d="m384.08,47.81c1.41-.54,2.12-2.11,1.58-3.52-.54-1.41-2.11-2.12-3.52-1.58-1.41.54-2.11,2.11-1.58,3.52.54,1.41,2.11,2.12,3.52,1.58m-5.34-35.11c-.69-1.81-2.71-2.72-4.53-2.04-1.81.69-2.72,2.72-2.03,4.53.69,1.81,2.72,2.72,4.53,2.03,1.81-.69,2.72-2.71,2.04-4.53m13.13,14.32c-.61-1.61-2.41-2.42-4.02-1.81-1.61.61-2.42,2.41-1.81,4.03.61,1.61,2.41,2.42,4.03,1.81,1.61-.61,2.42-2.42,1.81-4.03m15.74-5.42c-.87-2.29-3.43-3.44-5.72-2.57-2.29.87-3.44,3.43-2.57,5.72.87,2.29,3.43,3.44,5.72,2.57,2.29-.87,3.44-3.43,2.57-5.72"></path><path class="cls-6" d="m371.31,19.4c-.03-2.29.34-7.51-8.15-8.71,0,0-.5,8.74,8.15,8.71m10.6,21.18s-3.48-12.25-16.02-8.3c.26,1.52,5.98,13.15,16.02,8.3m4.51,11.47s-13.28-6.07-18.11,7.58c1.87,1.02,14.68,2.96,18.11-7.58m7.96-25.92c1.07-1.27,3.75-3.88-.14-8.83,0,0-4.56,3.99.14,8.83m28.87-4.55c-8.55-1.96-10.3,5.35-10.3,5.35,8.18,1.44,9.83-3.65,10.3-5.35"></path><path class="cls-5" d="m386.41,6.5s-10.74,6.6-2.66,18.52c2.47-1.58,9.35-7.61,2.66-18.52m24.92,8.8s-4.46,3.03-.46,8.53c1.51-.53,4.1-4.58.46-8.53m17.01,16.06s-7.57-2.53-10.45,7.12c1.98,1.3,9.06.71,10.45-7.12"></path><path class="cls-7" d="m375.81,27.61s-3.89-9.2-12.64-4.55c.47,1.38,6.03,8.28,12.64,4.55m21.46,1.26s-7.51.87-6.11,9.17c2-.55,6.59-1.33,6.11-9.17m20.11,2.01c-2.53-.03-12.3,2.04-11.7,10.97,0,0,11.5.11,11.7-10.97"></path><path class="cls-4" d="m379.54,46.47l-.02-.07s-4.78-5.07-10.49.51c.72.89,5.51,4.7,10.51-.43m41.07-3.28c-17.05-2.59-19.67,12.06-19.67,12.06,15.7,4.47,19.84-10.47,19.67-12.06"></path></svg>